<?xml version="1.0" encoding="utf-8"?>
<!-- Generator: Adobe Illustrator 16.0.0, SVG Export Plug-In . SVG Version: 6.00 Build 0)  -->
<!DOCTYPE svg PUBLIC "-//W3C//DTD SVG 1.1//EN" "http://www.w3.org/Graphics/SVG/1.1/DTD/svg11.dtd">
<svg version="1.1" id="图层_1" xmlns="http://www.w3.org/2000/svg" xmlns:xlink="http://www.w3.org/1999/xlink" x="0px" y="0px"
	 width="236px" height="234.5px" viewBox="0 0 472 469" enable-background="new 0 0 472 469" xml:space="preserve">
<path fill="none" stroke="#A9E0FF" stroke-width="5" stroke-miterlimit="10" d="M78.203,82.215
	c33.018-34.348,77.396-57.696,127.09-64.001l-5.343,30.962h32l-14,53h28v81l-46,46l-73-11l8,51.999l12,55l-72,15l21,42l1.922,14.684
	C134.643,426.65,181.487,444.5,232.5,444.5c118.188,0,214-95.812,214-214c0-8.439-0.488-16.765-1.438-24.949"/>
<path fill="none" stroke="#A9E0FF" stroke-width="5" stroke-miterlimit="10" d="M446.027,232.295l-52,15l-4,27.999l-44,50l-51,1
	l-6,43l5,36l-41,16l-11,22"/>
</svg>
